<svg xmlns="http://www.w3.org/2000/svg" width="1536" height="706" style="cursor: move;"><g transform="translate(290.1894920848289,116.82438506652599) scale(0.5773427658443465)"><path class="link" marker-end="" d="M526,-176, 797,93.5" style="stroke-width: 0.45; stroke-opacity: 1; stroke: rgb(80, 80, 80);"></path><path class="link" marker-end="" d="M526,-127, 797,93.5" style="stroke-width: 0.45; stroke-opacity: 1; stroke: rgb(80, 80, 80);"></path><path class="link" marker-end="" d="M526,-78, 797,93.5" style="stroke-width: 0.45; stroke-opacity: 1; stroke: rgb(80, 80, 80);"></path><path class="link" marker-end="" d="M526,-29, 797,93.5" style="stroke-width: 0.45; stroke-opacity: 1; stroke: rgb(80, 80, 80);"></path><path class="link" marker-end="" d="M526,20, 797,93.5" style="stroke-width: 0.45; stroke-opacity: 1; stroke: rgb(80, 80, 80);"></path><path class="link" marker-end="" d="M526,69, 797,93.5" style="stroke-width: 0.45; stroke-opacity: 1; stroke: rgb(80, 80, 80);"></path><path class="link" marker-end="" d="M526,118, 797,93.5" style="stroke-width: 0.45; stroke-opacity: 1; stroke: rgb(80, 80, 80);"></path><path class="link" marker-end="" d="M526,167, 797,93.5" style="stroke-width: 0.45; stroke-opacity: 1; stroke: rgb(80, 80, 80);"></path><path class="link" marker-end="" d="M526,216, 797,93.5" style="stroke-width: 0.45; stroke-opacity: 1; stroke: rgb(80, 80, 80);"></path><path class="link" marker-end="" d="M526,265, 797,93.5" style="stroke-width: 0.45; stroke-opacity: 1; stroke: rgb(80, 80, 80);"></path><path class="link" marker-end="" d="M526,314, 797,93.5" style="stroke-width: 0.45; stroke-opacity: 1; stroke: rgb(80, 80, 80);"></path><path class="link" marker-end="" d="M526,363, 797,93.5" style="stroke-width: 0.45; stroke-opacity: 1; stroke: rgb(80, 80, 80);"></path><path class="link" marker-end="" d="M526,412, 797,93.5" style="stroke-width: 0.45; stroke-opacity: 1; stroke: rgb(80, 80, 80);"></path><path class="link" marker-end="" d="M526,461, 797,93.5" style="stroke-width: 0.45; stroke-opacity: 1; stroke: rgb(80, 80, 80);"></path><path class="link" marker-end="" d="M526,510, 797,93.5" style="stroke-width: 0.45; stroke-opacity: 1; stroke: rgb(80, 80, 80);"></path><path class="link" marker-end="" d="M526,559, 797,93.5" style="stroke-width: 0.45; stroke-opacity: 1; stroke: rgb(80, 80, 80);"></path><path class="link" marker-end="" d="M526,608, 797,93.5" style="stroke-width: 0.45; stroke-opacity: 1; stroke: rgb(80, 80, 80);"></path><path class="link" marker-end="" d="M526,657, 797,93.5" style="stroke-width: 0.45; stroke-opacity: 1; stroke: rgb(80, 80, 80);"></path><path class="link" marker-end="" d="M526,706, 797,93.5" style="stroke-width: 0.45; stroke-opacity: 1; stroke: rgb(80, 80, 80);"></path><path class="link" marker-end="" d="M526,755, 797,93.5" style="stroke-width: 0.45; stroke-opacity: 1; stroke: rgb(80, 80, 80);"></path><path class="link" marker-end="" d="M526,804, 797,93.5" style="stroke-width: 0.45; stroke-opacity: 1; stroke: rgb(80, 80, 80);"></path><path class="link" marker-end="" d="M526,853, 797,93.5" style="stroke-width: 0.45; stroke-opacity: 1; stroke: rgb(80, 80, 80);"></path><path class="link" marker-end="" d="M526,-176, 797,142.5" style="stroke-width: 0.45; stroke-opacity: 1; stroke: rgb(80, 80, 80);"></path><path class="link" marker-end="" d="M526,-176, 797,191.5" style="stroke-width: 0.45; stroke-opacity: 1; stroke: rgb(80, 80, 80);"></path><path class="link" marker-end="" d="M526,-176, 797,240.5" style="stroke-width: 0.45; stroke-opacity: 1; stroke: rgb(80, 80, 80);"></path><path class="link" marker-end="" d="M526,-176, 797,289.5" style="stroke-width: 0.45; stroke-opacity: 1; stroke: rgb(80, 80, 80);"></path><path class="link" marker-end="" d="M526,-176, 797,338.5" style="stroke-width: 0.45; stroke-opacity: 1; stroke: rgb(80, 80, 80);"></path><path class="link" marker-end="" d="M526,-176, 797,387.5" style="stroke-width: 0.45; stroke-opacity: 1; stroke: rgb(80, 80, 80);"></path><path class="link" marker-end="" d="M526,-176, 797,436.5" style="stroke-width: 0.45; stroke-opacity: 1; stroke: rgb(80, 80, 80);"></path><path class="link" marker-end="" d="M526,-176, 797,485.5" style="stroke-width: 0.45; stroke-opacity: 1; stroke: rgb(80, 80, 80);"></path><path class="link" marker-end="" d="M526,-176, 797,534.5" style="stroke-width: 0.45; stroke-opacity: 1; stroke: rgb(80, 80, 80);"></path><path class="link" marker-end="" d="M526,-176, 797,583.5" style="stroke-width: 0.45; stroke-opacity: 1; stroke: rgb(80, 80, 80);"></path><path class="link" marker-end="" d="M526,-127, 797,142.5" style="stroke-width: 0.45; stroke-opacity: 1; stroke: rgb(80, 80, 80);"></path><path class="link" marker-end="" d="M526,-127, 797,191.5" style="stroke-width: 0.45; stroke-opacity: 1; stroke: rgb(80, 80, 80);"></path><path class="link" marker-end="" d="M526,-127, 797,240.5" style="stroke-width: 0.45; stroke-opacity: 1; stroke: rgb(80, 80, 80);"></path><path class="link" marker-end="" d="M526,-127, 797,289.5" style="stroke-width: 0.45; stroke-opacity: 1; stroke: rgb(80, 80, 80);"></path><path class="link" marker-end="" d="M526,-127, 797,338.5" style="stroke-width: 0.45; stroke-opacity: 1; stroke: rgb(80, 80, 80);"></path><path class="link" marker-end="" d="M526,-127, 797,387.5" style="stroke-width: 0.45; stroke-opacity: 1; stroke: rgb(80, 80, 80);"></path><path class="link" marker-end="" d="M526,-127, 797,436.5" style="stroke-width: 0.45; stroke-opacity: 1; stroke: rgb(80, 80, 80);"></path><path class="link" marker-end="" d="M526,-127, 797,485.5" style="stroke-width: 0.45; stroke-opacity: 1; stroke: rgb(80, 80, 80);"></path><path class="link" marker-end="" d="M526,-127, 797,534.5" style="stroke-width: 0.45; stroke-opacity: 1; stroke: rgb(80, 80, 80);"></path><path class="link" marker-end="" d="M526,-127, 797,583.5" style="stroke-width: 0.45; stroke-opacity: 1; stroke: rgb(80, 80, 80);"></path><path class="link" marker-end="" d="M526,-78, 797,142.5" style="stroke-width: 0.45; stroke-opacity: 1; stroke: rgb(80, 80, 80);"></path><path class="link" marker-end="" d="M526,-78, 797,191.5" style="stroke-width: 0.45; stroke-opacity: 1; stroke: rgb(80, 80, 80);"></path><path class="link" marker-end="" d="M526,-78, 797,240.5" style="stroke-width: 0.45; stroke-opacity: 1; stroke: rgb(80, 80, 80);"></path><path class="link" marker-end="" d="M526,-78, 797,289.5" style="stroke-width: 0.45; stroke-opacity: 1; stroke: rgb(80, 80, 80);"></path><path class="link" marker-end="" d="M526,-78, 797,338.5" style="stroke-width: 0.45; stroke-opacity: 1; stroke: rgb(80, 80, 80);"></path><path class="link" marker-end="" d="M526,-78, 797,387.5" style="stroke-width: 0.45; stroke-opacity: 1; stroke: rgb(80, 80, 80);"></path><path class="link" marker-end="" d="M526,-78, 797,436.5" style="stroke-width: 0.45; stroke-opacity: 1; stroke: rgb(80, 80, 80);"></path><path class="link" marker-end="" d="M526,-78, 797,485.5" style="stroke-width: 0.45; stroke-opacity: 1; stroke: rgb(80, 80, 80);"></path><path class="link" marker-end="" d="M526,-78, 797,534.5" style="stroke-width: 0.45; stroke-opacity: 1; stroke: rgb(80, 80, 80);"></path><path class="link" marker-end="" d="M526,-78, 797,583.5" style="stroke-width: 0.45; stroke-opacity: 1; stroke: rgb(80, 80, 80);"></path><path class="link" marker-end="" d="M526,-29, 797,142.5" style="stroke-width: 0.45; stroke-opacity: 1; stroke: rgb(80, 80, 80);"></path><path class="link" marker-end="" d="M526,-29, 797,191.5" style="stroke-width: 0.45; stroke-opacity: 1; stroke: rgb(80, 80, 80);"></path><path class="link" marker-end="" d="M526,-29, 797,240.5" style="stroke-width: 0.45; stroke-opacity: 1; stroke: rgb(80, 80, 80);"></path><path class="link" marker-end="" d="M526,-29, 797,289.5" style="stroke-width: 0.45; stroke-opacity: 1; stroke: rgb(80, 80, 80);"></path><path class="link" marker-end="" d="M526,-29, 797,338.5" style="stroke-width: 0.45; stroke-opacity: 1; stroke: rgb(80, 80, 80);"></path><path class="link" marker-end="" d="M526,-29, 797,387.5" style="stroke-width: 0.45; stroke-opacity: 1; stroke: rgb(80, 80, 80);"></path><path class="link" marker-end="" d="M526,-29, 797,436.5" style="stroke-width: 0.45; stroke-opacity: 1; stroke: rgb(80, 80, 80);"></path><path class="link" marker-end="" d="M526,-29, 797,485.5" style="stroke-width: 0.45; stroke-opacity: 1; stroke: rgb(80, 80, 80);"></path><path class="link" marker-end="" d="M526,-29, 797,534.5" style="stroke-width: 0.45; stroke-opacity: 1; stroke: rgb(80, 80, 80);"></path><path class="link" marker-end="" d="M526,-29, 797,583.5" style="stroke-width: 0.45; stroke-opacity: 1; stroke: rgb(80, 80, 80);"></path><path class="link" marker-end="" d="M526,20, 797,142.5" style="stroke-width: 0.45; stroke-opacity: 1; stroke: rgb(80, 80, 80);"></path><path class="link" marker-end="" d="M526,20, 797,191.5" style="stroke-width: 0.45; stroke-opacity: 1; stroke: rgb(80, 80, 80);"></path><path class="link" marker-end="" d="M526,20, 797,240.5" style="stroke-width: 0.45; stroke-opacity: 1; stroke: rgb(80, 80, 80);"></path><path class="link" marker-end="" d="M526,20, 797,289.5" style="stroke-width: 0.45; stroke-opacity: 1; stroke: rgb(80, 80, 80);"></path><path class="link" marker-end="" d="M526,20, 797,338.5" style="stroke-width: 0.45; stroke-opacity: 1; stroke: rgb(80, 80, 80);"></path><path class="link" marker-end="" d="M526,20, 797,387.5" style="stroke-width: 0.45; stroke-opacity: 1; stroke: rgb(80, 80, 80);"></path><path class="link" marker-end="" d="M526,20, 797,436.5" style="stroke-width: 0.45; stroke-opacity: 1; stroke: rgb(80, 80, 80);"></path><path class="link" marker-end="" d="M526,20, 797,485.5" style="stroke-width: 0.45; stroke-opacity: 1; stroke: rgb(80, 80, 80);"></path><path class="link" marker-end="" d="M526,20, 797,534.5" style="stroke-width: 0.45; stroke-opacity: 1; stroke: rgb(80, 80, 80);"></path><path class="link" marker-end="" d="M526,20, 797,583.5" style="stroke-width: 0.45; stroke-opacity: 1; stroke: rgb(80, 80, 80);"></path><path class="link" marker-end="" d="M526,69, 797,142.5" style="stroke-width: 0.45; stroke-opacity: 1; stroke: rgb(80, 80, 80);"></path><path class="link" marker-end="" d="M526,69, 797,191.5" style="stroke-width: 0.45; stroke-opacity: 1; stroke: rgb(80, 80, 80);"></path><path class="link" marker-end="" d="M526,69, 797,240.5" style="stroke-width: 0.45; stroke-opacity: 1; stroke: rgb(80, 80, 80);"></path><path class="link" marker-end="" d="M526,69, 797,289.5" style="stroke-width: 0.45; stroke-opacity: 1; stroke: rgb(80, 80, 80);"></path><path class="link" marker-end="" d="M526,69, 797,338.5" style="stroke-width: 0.45; stroke-opacity: 1; stroke: rgb(80, 80, 80);"></path><path class="link" marker-end="" d="M526,69, 797,387.5" style="stroke-width: 0.45; stroke-opacity: 1; stroke: rgb(80, 80, 80);"></path><path class="link" marker-end="" d="M526,69, 797,436.5" style="stroke-width: 0.45; stroke-opacity: 1; stroke: rgb(80, 80, 80);"></path><path class="link" marker-end="" d="M526,69, 797,485.5" style="stroke-width: 0.45; stroke-opacity: 1; stroke: rgb(80, 80, 80);"></path><path class="link" marker-end="" d="M526,69, 797,534.5" style="stroke-width: 0.45; stroke-opacity: 1; stroke: rgb(80, 80, 80);"></path><path class="link" marker-end="" d="M526,69, 797,583.5" style="stroke-width: 0.45; stroke-opacity: 1; stroke: rgb(80, 80, 80);"></path><path class="link" marker-end="" d="M526,118, 797,142.5" style="stroke-width: 0.45; stroke-opacity: 1; stroke: rgb(80, 80, 80);"></path><path class="link" marker-end="" d="M526,118, 797,191.5" style="stroke-width: 0.45; stroke-opacity: 1; stroke: rgb(80, 80, 80);"></path><path class="link" marker-end="" d="M526,118, 797,240.5" style="stroke-width: 0.45; stroke-opacity: 1; stroke: rgb(80, 80, 80);"></path><path class="link" marker-end="" d="M526,118, 797,289.5" style="stroke-width: 0.45; stroke-opacity: 1; stroke: rgb(80, 80, 80);"></path><path class="link" marker-end="" d="M526,118, 797,338.5" style="stroke-width: 0.45; stroke-opacity: 1; stroke: rgb(80, 80, 80);"></path><path class="link" marker-end="" d="M526,118, 797,387.5" style="stroke-width: 0.45; stroke-opacity: 1; stroke: rgb(80, 80, 80);"></path><path class="link" marker-end="" d="M526,118, 797,436.5" style="stroke-width: 0.45; stroke-opacity: 1; stroke: rgb(80, 80, 80);"></path><path class="link" marker-end="" d="M526,118, 797,485.5" style="stroke-width: 0.45; stroke-opacity: 1; stroke: rgb(80, 80, 80);"></path><path class="link" marker-end="" d="M526,118, 797,534.5" style="stroke-width: 0.45; stroke-opacity: 1; stroke: rgb(80, 80, 80);"></path><path class="link" marker-end="" d="M526,118, 797,583.5" style="stroke-width: 0.45; stroke-opacity: 1; stroke: rgb(80, 80, 80);"></path><path class="link" marker-end="" d="M526,167, 797,142.5" style="stroke-width: 0.45; stroke-opacity: 1; stroke: rgb(80, 80, 80);"></path><path class="link" marker-end="" d="M526,167, 797,191.5" style="stroke-width: 0.45; stroke-opacity: 1; stroke: rgb(80, 80, 80);"></path><path class="link" marker-end="" d="M526,167, 797,240.5" style="stroke-width: 0.45; stroke-opacity: 1; stroke: rgb(80, 80, 80);"></path><path class="link" marker-end="" d="M526,167, 797,289.5" style="stroke-width: 0.45; stroke-opacity: 1; stroke: rgb(80, 80, 80);"></path><path class="link" marker-end="" d="M526,167, 797,338.5" style="stroke-width: 0.45; stroke-opacity: 1; stroke: rgb(80, 80, 80);"></path><path class="link" marker-end="" d="M526,167, 797,387.5" style="stroke-width: 0.45; stroke-opacity: 1; stroke: rgb(80, 80, 80);"></path><path class="link" marker-end="" d="M526,167, 797,436.5" style="stroke-width: 0.45; stroke-opacity: 1; stroke: rgb(80, 80, 80);"></path><path class="link" marker-end="" d="M526,167, 797,485.5" style="stroke-width: 0.45; stroke-opacity: 1; stroke: rgb(80, 80, 80);"></path><path class="link" marker-end="" d="M526,167, 797,534.5" style="stroke-width: 0.45; stroke-opacity: 1; stroke: rgb(80, 80, 80);"></path><path class="link" marker-end="" d="M526,167, 797,583.5" style="stroke-width: 0.45; stroke-opacity: 1; stroke: rgb(80, 80, 80);"></path><path class="link" marker-end="" d="M526,216, 797,142.5" style="stroke-width: 0.45; stroke-opacity: 1; stroke: rgb(80, 80, 80);"></path><path class="link" marker-end="" d="M526,216, 797,191.5" style="stroke-width: 0.45; stroke-opacity: 1; stroke: rgb(80, 80, 80);"></path><path class="link" marker-end="" d="M526,216, 797,240.5" style="stroke-width: 0.45; stroke-opacity: 1; stroke: rgb(80, 80, 80);"></path><path class="link" marker-end="" d="M526,216, 797,289.5" style="stroke-width: 0.45; stroke-opacity: 1; stroke: rgb(80, 80, 80);"></path><path class="link" marker-end="" d="M526,216, 797,338.5" style="stroke-width: 0.45; stroke-opacity: 1; stroke: rgb(80, 80, 80);"></path><path class="link" marker-end="" d="M526,216, 797,387.5" style="stroke-width: 0.45; stroke-opacity: 1; stroke: rgb(80, 80, 80);"></path><path class="link" marker-end="" d="M526,216, 797,436.5" style="stroke-width: 0.45; stroke-opacity: 1; stroke: rgb(80, 80, 80);"></path><path class="link" marker-end="" d="M526,216, 797,485.5" style="stroke-width: 0.45; stroke-opacity: 1; stroke: rgb(80, 80, 80);"></path><path class="link" marker-end="" d="M526,216, 797,534.5" style="stroke-width: 0.45; stroke-opacity: 1; stroke: rgb(80, 80, 80);"></path><path class="link" marker-end="" d="M526,216, 797,583.5" style="stroke-width: 0.45; stroke-opacity: 1; stroke: rgb(80, 80, 80);"></path><path class="link" marker-end="" d="M526,265, 797,142.5" style="stroke-width: 0.45; stroke-opacity: 1; stroke: rgb(80, 80, 80);"></path><path class="link" marker-end="" d="M526,265, 797,191.5" style="stroke-width: 0.45; stroke-opacity: 1; stroke: rgb(80, 80, 80);"></path><path class="link" marker-end="" d="M526,265, 797,240.5" style="stroke-width: 0.45; stroke-opacity: 1; stroke: rgb(80, 80, 80);"></path><path class="link" marker-end="" d="M526,265, 797,289.5" style="stroke-width: 0.45; stroke-opacity: 1; stroke: rgb(80, 80, 80);"></path><path class="link" marker-end="" d="M526,265, 797,338.5" style="stroke-width: 0.45; stroke-opacity: 1; stroke: rgb(80, 80, 80);"></path><path class="link" marker-end="" d="M526,265, 797,387.5" style="stroke-width: 0.45; stroke-opacity: 1; stroke: rgb(80, 80, 80);"></path><path class="link" marker-end="" d="M526,265, 797,436.5" style="stroke-width: 0.45; stroke-opacity: 1; stroke: rgb(80, 80, 80);"></path><path class="link" marker-end="" d="M526,265, 797,485.5" style="stroke-width: 0.45; stroke-opacity: 1; stroke: rgb(80, 80, 80);"></path><path class="link" marker-end="" d="M526,265, 797,534.5" style="stroke-width: 0.45; stroke-opacity: 1; stroke: rgb(80, 80, 80);"></path><path class="link" marker-end="" d="M526,265, 797,583.5" style="stroke-width: 0.45; stroke-opacity: 1; stroke: rgb(80, 80, 80);"></path><path class="link" marker-end="" d="M526,314, 797,142.5" style="stroke-width: 0.45; stroke-opacity: 1; stroke: rgb(80, 80, 80);"></path><path class="link" marker-end="" d="M526,314, 797,191.5" style="stroke-width: 0.45; stroke-opacity: 1; stroke: rgb(80, 80, 80);"></path><path class="link" marker-end="" d="M526,314, 797,240.5" style="stroke-width: 0.45; stroke-opacity: 1; stroke: rgb(80, 80, 80);"></path><path class="link" marker-end="" d="M526,314, 797,289.5" style="stroke-width: 0.45; stroke-opacity: 1; stroke: rgb(80, 80, 80);"></path><path class="link" marker-end="" d="M526,314, 797,338.5" style="stroke-width: 0.45; stroke-opacity: 1; stroke: rgb(80, 80, 80);"></path><path class="link" marker-end="" d="M526,314, 797,387.5" style="stroke-width: 0.45; stroke-opacity: 1; stroke: rgb(80, 80, 80);"></path><path class="link" marker-end="" d="M526,314, 797,436.5" style="stroke-width: 0.45; stroke-opacity: 1; stroke: rgb(80, 80, 80);"></path><path class="link" marker-end="" d="M526,314, 797,485.5" style="stroke-width: 0.45; stroke-opacity: 1; stroke: rgb(80, 80, 80);"></path><path class="link" marker-end="" d="M526,314, 797,534.5" style="stroke-width: 0.45; stroke-opacity: 1; stroke: rgb(80, 80, 80);"></path><path class="link" marker-end="" d="M526,314, 797,583.5" style="stroke-width: 0.45; stroke-opacity: 1; stroke: rgb(80, 80, 80);"></path><path class="link" marker-end="" d="M526,363, 797,142.5" style="stroke-width: 0.45; stroke-opacity: 1; stroke: rgb(80, 80, 80);"></path><path class="link" marker-end="" d="M526,363, 797,191.5" style="stroke-width: 0.45; stroke-opacity: 1; stroke: rgb(80, 80, 80);"></path><path class="link" marker-end="" d="M526,363, 797,240.5" style="stroke-width: 0.45; stroke-opacity: 1; stroke: rgb(80, 80, 80);"></path><path class="link" marker-end="" d="M526,363, 797,289.5" style="stroke-width: 0.45; stroke-opacity: 1; stroke: rgb(80, 80, 80);"></path><path class="link" marker-end="" d="M526,363, 797,338.5" style="stroke-width: 0.45; stroke-opacity: 1; stroke: rgb(80, 80, 80);"></path><path class="link" marker-end="" d="M526,363, 797,387.5" style="stroke-width: 0.45; stroke-opacity: 1; stroke: rgb(80, 80, 80);"></path><path class="link" marker-end="" d="M526,363, 797,436.5" style="stroke-width: 0.45; stroke-opacity: 1; stroke: rgb(80, 80, 80);"></path><path class="link" marker-end="" d="M526,363, 797,485.5" style="stroke-width: 0.45; stroke-opacity: 1; stroke: rgb(80, 80, 80);"></path><path class="link" marker-end="" d="M526,363, 797,534.5" style="stroke-width: 0.45; stroke-opacity: 1; stroke: rgb(80, 80, 80);"></path><path class="link" marker-end="" d="M526,363, 797,583.5" style="stroke-width: 0.45; stroke-opacity: 1; stroke: rgb(80, 80, 80);"></path><path class="link" marker-end="" d="M526,412, 797,142.5" style="stroke-width: 0.45; stroke-opacity: 1; stroke: rgb(80, 80, 80);"></path><path class="link" marker-end="" d="M526,412, 797,191.5" style="stroke-width: 0.45; stroke-opacity: 1; stroke: rgb(80, 80, 80);"></path><path class="link" marker-end="" d="M526,412, 797,240.5" style="stroke-width: 0.45; stroke-opacity: 1; stroke: rgb(80, 80, 80);"></path><path class="link" marker-end="" d="M526,412, 797,289.5" style="stroke-width: 0.45; stroke-opacity: 1; stroke: rgb(80, 80, 80);"></path><path class="link" marker-end="" d="M526,412, 797,338.5" style="stroke-width: 0.45; stroke-opacity: 1; stroke: rgb(80, 80, 80);"></path><path class="link" marker-end="" d="M526,412, 797,387.5" style="stroke-width: 0.45; stroke-opacity: 1; stroke: rgb(80, 80, 80);"></path><path class="link" marker-end="" d="M526,412, 797,436.5" style="stroke-width: 0.45; stroke-opacity: 1; stroke: rgb(80, 80, 80);"></path><path class="link" marker-end="" d="M526,412, 797,485.5" style="stroke-width: 0.45; stroke-opacity: 1; stroke: rgb(80, 80, 80);"></path><path class="link" marker-end="" d="M526,412, 797,534.5" style="stroke-width: 0.45; stroke-opacity: 1; stroke: rgb(80, 80, 80);"></path><path class="link" marker-end="" d="M526,412, 797,583.5" style="stroke-width: 0.45; stroke-opacity: 1; stroke: rgb(80, 80, 80);"></path><path class="link" marker-end="" d="M526,461, 797,142.5" style="stroke-width: 0.45; stroke-opacity: 1; stroke: rgb(80, 80, 80);"></path><path class="link" marker-end="" d="M526,461, 797,191.5" style="stroke-width: 0.45; stroke-opacity: 1; stroke: rgb(80, 80, 80);"></path><path class="link" marker-end="" d="M526,461, 797,240.5" style="stroke-width: 0.45; stroke-opacity: 1; stroke: rgb(80, 80, 80);"></path><path class="link" marker-end="" d="M526,461, 797,289.5" style="stroke-width: 0.45; stroke-opacity: 1; stroke: rgb(80, 80, 80);"></path><path class="link" marker-end="" d="M526,461, 797,338.5" style="stroke-width: 0.45; stroke-opacity: 1; stroke: rgb(80, 80, 80);"></path><path class="link" marker-end="" d="M526,461, 797,387.5" style="stroke-width: 0.45; stroke-opacity: 1; stroke: rgb(80, 80, 80);"></path><path class="link" marker-end="" d="M526,461, 797,436.5" style="stroke-width: 0.45; stroke-opacity: 1; stroke: rgb(80, 80, 80);"></path><path class="link" marker-end="" d="M526,461, 797,485.5" style="stroke-width: 0.45; stroke-opacity: 1; stroke: rgb(80, 80, 80);"></path><path class="link" marker-end="" d="M526,461, 797,534.5" style="stroke-width: 0.45; stroke-opacity: 1; stroke: rgb(80, 80, 80);"></path><path class="link" marker-end="" d="M526,461, 797,583.5" style="stroke-width: 0.45; stroke-opacity: 1; stroke: rgb(80, 80, 80);"></path><path class="link" marker-end="" d="M526,510, 797,142.5" style="stroke-width: 0.45; stroke-opacity: 1; stroke: rgb(80, 80, 80);"></path><path class="link" marker-end="" d="M526,510, 797,191.5" style="stroke-width: 0.45; stroke-opacity: 1; stroke: rgb(80, 80, 80);"></path><path class="link" marker-end="" d="M526,510, 797,240.5" style="stroke-width: 0.45; stroke-opacity: 1; stroke: rgb(80, 80, 80);"></path><path class="link" marker-end="" d="M526,510, 797,289.5" style="stroke-width: 0.45; stroke-opacity: 1; stroke: rgb(80, 80, 80);"></path><path class="link" marker-end="" d="M526,510, 797,338.5" style="stroke-width: 0.45; stroke-opacity: 1; stroke: rgb(80, 80, 80);"></path><path class="link" marker-end="" d="M526,510, 797,387.5" style="stroke-width: 0.45; stroke-opacity: 1; stroke: rgb(80, 80, 80);"></path><path class="link" marker-end="" d="M526,510, 797,436.5" style="stroke-width: 0.45; stroke-opacity: 1; stroke: rgb(80, 80, 80);"></path><path class="link" marker-end="" d="M526,510, 797,485.5" style="stroke-width: 0.45; stroke-opacity: 1; stroke: rgb(80, 80, 80);"></path><path class="link" marker-end="" d="M526,510, 797,534.5" style="stroke-width: 0.45; stroke-opacity: 1; stroke: rgb(80, 80, 80);"></path><path class="link" marker-end="" d="M526,510, 797,583.5" style="stroke-width: 0.45; stroke-opacity: 1; stroke: rgb(80, 80, 80);"></path><path class="link" marker-end="" d="M526,559, 797,142.5" style="stroke-width: 0.45; stroke-opacity: 1; stroke: rgb(80, 80, 80);"></path><path class="link" marker-end="" d="M526,559, 797,191.5" style="stroke-width: 0.45; stroke-opacity: 1; stroke: rgb(80, 80, 80);"></path><path class="link" marker-end="" d="M526,559, 797,240.5" style="stroke-width: 0.45; stroke-opacity: 1; stroke: rgb(80, 80, 80);"></path><path class="link" marker-end="" d="M526,559, 797,289.5" style="stroke-width: 0.45; stroke-opacity: 1; stroke: rgb(80, 80, 80);"></path><path class="link" marker-end="" d="M526,559, 797,338.5" style="stroke-width: 0.45; stroke-opacity: 1; stroke: rgb(80, 80, 80);"></path><path class="link" marker-end="" d="M526,559, 797,387.5" style="stroke-width: 0.45; stroke-opacity: 1; stroke: rgb(80, 80, 80);"></path><path class="link" marker-end="" d="M526,559, 797,436.5" style="stroke-width: 0.45; stroke-opacity: 1; stroke: rgb(80, 80, 80);"></path><path class="link" marker-end="" d="M526,559, 797,485.5" style="stroke-width: 0.45; stroke-opacity: 1; stroke: rgb(80, 80, 80);"></path><path class="link" marker-end="" d="M526,559, 797,534.5" style="stroke-width: 0.45; stroke-opacity: 1; stroke: rgb(80, 80, 80);"></path><path class="link" marker-end="" d="M526,559, 797,583.5" style="stroke-width: 0.45; stroke-opacity: 1; stroke: rgb(80, 80, 80);"></path><path class="link" marker-end="" d="M526,608, 797,142.5" style="stroke-width: 0.45; stroke-opacity: 1; stroke: rgb(80, 80, 80);"></path><path class="link" marker-end="" d="M526,608, 797,191.5" style="stroke-width: 0.45; stroke-opacity: 1; stroke: rgb(80, 80, 80);"></path><path class="link" marker-end="" d="M526,608, 797,240.5" style="stroke-width: 0.45; stroke-opacity: 1; stroke: rgb(80, 80, 80);"></path><path class="link" marker-end="" d="M526,608, 797,289.5" style="stroke-width: 0.45; stroke-opacity: 1; stroke: rgb(80, 80, 80);"></path><path class="link" marker-end="" d="M526,608, 797,338.5" style="stroke-width: 0.45; stroke-opacity: 1; stroke: rgb(80, 80, 80);"></path><path class="link" marker-end="" d="M526,608, 797,387.5" style="stroke-width: 0.45; stroke-opacity: 1; stroke: rgb(80, 80, 80);"></path><path class="link" marker-end="" d="M526,608, 797,436.5" style="stroke-width: 0.45; stroke-opacity: 1; stroke: rgb(80, 80, 80);"></path><path class="link" marker-end="" d="M526,608, 797,485.5" style="stroke-width: 0.45; stroke-opacity: 1; stroke: rgb(80, 80, 80);"></path><path class="link" marker-end="" d="M526,608, 797,534.5" style="stroke-width: 0.45; stroke-opacity: 1; stroke: rgb(80, 80, 80);"></path><path class="link" marker-end="" d="M526,608, 797,583.5" style="stroke-width: 0.45; stroke-opacity: 1; stroke: rgb(80, 80, 80);"></path><path class="link" marker-end="" d="M526,657, 797,142.5" style="stroke-width: 0.45; stroke-opacity: 1; stroke: rgb(80, 80, 80);"></path><path class="link" marker-end="" d="M526,657, 797,191.5" style="stroke-width: 0.45; stroke-opacity: 1; stroke: rgb(80, 80, 80);"></path><path class="link" marker-end="" d="M526,657, 797,240.5" style="stroke-width: 0.45; stroke-opacity: 1; stroke: rgb(80, 80, 80);"></path><path class="link" marker-end="" d="M526,657, 797,289.5" style="stroke-width: 0.45; stroke-opacity: 1; stroke: rgb(80, 80, 80);"></path><path class="link" marker-end="" d="M526,657, 797,338.5" style="stroke-width: 0.45; stroke-opacity: 1; stroke: rgb(80, 80, 80);"></path><path class="link" marker-end="" d="M526,657, 797,387.5" style="stroke-width: 0.45; stroke-opacity: 1; stroke: rgb(80, 80, 80);"></path><path class="link" marker-end="" d="M526,657, 797,436.5" style="stroke-width: 0.45; stroke-opacity: 1; stroke: rgb(80, 80, 80);"></path><path class="link" marker-end="" d="M526,657, 797,485.5" style="stroke-width: 0.45; stroke-opacity: 1; stroke: rgb(80, 80, 80);"></path><path class="link" marker-end="" d="M526,657, 797,534.5" style="stroke-width: 0.45; stroke-opacity: 1; stroke: rgb(80, 80, 80);"></path><path class="link" marker-end="" d="M526,657, 797,583.5" style="stroke-width: 0.45; stroke-opacity: 1; stroke: rgb(80, 80, 80);"></path><path class="link" marker-end="" d="M526,706, 797,142.5" style="stroke-width: 0.45; stroke-opacity: 1; stroke: rgb(80, 80, 80);"></path><path class="link" marker-end="" d="M526,706, 797,191.5" style="stroke-width: 0.45; stroke-opacity: 1; stroke: rgb(80, 80, 80);"></path><path class="link" marker-end="" d="M526,706, 797,240.5" style="stroke-width: 0.45; stroke-opacity: 1; stroke: rgb(80, 80, 80);"></path><path class="link" marker-end="" d="M526,706, 797,289.5" style="stroke-width: 0.45; stroke-opacity: 1; stroke: rgb(80, 80, 80);"></path><path class="link" marker-end="" d="M526,706, 797,338.5" style="stroke-width: 0.45; stroke-opacity: 1; stroke: rgb(80, 80, 80);"></path><path class="link" marker-end="" d="M526,706, 797,387.5" style="stroke-width: 0.45; stroke-opacity: 1; stroke: rgb(80, 80, 80);"></path><path class="link" marker-end="" d="M526,706, 797,436.5" style="stroke-width: 0.45; stroke-opacity: 1; stroke: rgb(80, 80, 80);"></path><path class="link" marker-end="" d="M526,706, 797,485.5" style="stroke-width: 0.45; stroke-opacity: 1; stroke: rgb(80, 80, 80);"></path><path class="link" marker-end="" d="M526,706, 797,534.5" style="stroke-width: 0.45; stroke-opacity: 1; stroke: rgb(80, 80, 80);"></path><path class="link" marker-end="" d="M526,706, 797,583.5" style="stroke-width: 0.45; stroke-opacity: 1; stroke: rgb(80, 80, 80);"></path><path class="link" marker-end="" d="M526,755, 797,142.5" style="stroke-width: 0.45; stroke-opacity: 1; stroke: rgb(80, 80, 80);"></path><path class="link" marker-end="" d="M526,755, 797,191.5" style="stroke-width: 0.45; stroke-opacity: 1; stroke: rgb(80, 80, 80);"></path><path class="link" marker-end="" d="M526,755, 797,240.5" style="stroke-width: 0.45; stroke-opacity: 1; stroke: rgb(80, 80, 80);"></path><path class="link" marker-end="" d="M526,755, 797,289.5" style="stroke-width: 0.45; stroke-opacity: 1; stroke: rgb(80, 80, 80);"></path><path class="link" marker-end="" d="M526,755, 797,338.5" style="stroke-width: 0.45; stroke-opacity: 1; stroke: rgb(80, 80, 80);"></path><path class="link" marker-end="" d="M526,755, 797,387.5" style="stroke-width: 0.45; stroke-opacity: 1; stroke: rgb(80, 80, 80);"></path><path class="link" marker-end="" d="M526,755, 797,436.5" style="stroke-width: 0.45; stroke-opacity: 1; stroke: rgb(80, 80, 80);"></path><path class="link" marker-end="" d="M526,755, 797,485.5" style="stroke-width: 0.45; stroke-opacity: 1; stroke: rgb(80, 80, 80);"></path><path class="link" marker-end="" d="M526,755, 797,534.5" style="stroke-width: 0.45; stroke-opacity: 1; stroke: rgb(80, 80, 80);"></path><path class="link" marker-end="" d="M526,755, 797,583.5" style="stroke-width: 0.45; stroke-opacity: 1; stroke: rgb(80, 80, 80);"></path><path class="link" marker-end="" d="M526,804, 797,142.5" style="stroke-width: 0.45; stroke-opacity: 1; stroke: rgb(80, 80, 80);"></path><path class="link" marker-end="" d="M526,804, 797,191.5" style="stroke-width: 0.45; stroke-opacity: 1; stroke: rgb(80, 80, 80);"></path><path class="link" marker-end="" d="M526,804, 797,240.5" style="stroke-width: 0.45; stroke-opacity: 1; stroke: rgb(80, 80, 80);"></path><path class="link" marker-end="" d="M526,804, 797,289.5" style="stroke-width: 0.45; stroke-opacity: 1; stroke: rgb(80, 80, 80);"></path><path class="link" marker-end="" d="M526,804, 797,338.5" style="stroke-width: 0.45; stroke-opacity: 1; stroke: rgb(80, 80, 80);"></path><path class="link" marker-end="" d="M526,804, 797,387.5" style="stroke-width: 0.45; stroke-opacity: 1; stroke: rgb(80, 80, 80);"></path><path class="link" marker-end="" d="M526,804, 797,436.5" style="stroke-width: 0.45; stroke-opacity: 1; stroke: rgb(80, 80, 80);"></path><path class="link" marker-end="" d="M526,804, 797,485.5" style="stroke-width: 0.45; stroke-opacity: 1; stroke: rgb(80, 80, 80);"></path><path class="link" marker-end="" d="M526,804, 797,534.5" style="stroke-width: 0.45; stroke-opacity: 1; stroke: rgb(80, 80, 80);"></path><path class="link" marker-end="" d="M526,804, 797,583.5" style="stroke-width: 0.45; stroke-opacity: 1; stroke: rgb(80, 80, 80);"></path><path class="link" marker-end="" d="M526,853, 797,142.5" style="stroke-width: 0.45; stroke-opacity: 1; stroke: rgb(80, 80, 80);"></path><path class="link" marker-end="" d="M526,853, 797,191.5" style="stroke-width: 0.45; stroke-opacity: 1; stroke: rgb(80, 80, 80);"></path><path class="link" marker-end="" d="M526,853, 797,240.5" style="stroke-width: 0.45; stroke-opacity: 1; stroke: rgb(80, 80, 80);"></path><path class="link" marker-end="" d="M526,853, 797,289.5" style="stroke-width: 0.45; stroke-opacity: 1; stroke: rgb(80, 80, 80);"></path><path class="link" marker-end="" d="M526,853, 797,338.5" style="stroke-width: 0.45; stroke-opacity: 1; stroke: rgb(80, 80, 80);"></path><path class="link" marker-end="" d="M526,853, 797,387.5" style="stroke-width: 0.45; stroke-opacity: 1; stroke: rgb(80, 80, 80);"></path><path class="link" marker-end="" d="M526,853, 797,436.5" style="stroke-width: 0.45; stroke-opacity: 1; stroke: rgb(80, 80, 80);"></path><path class="link" marker-end="" d="M526,853, 797,485.5" style="stroke-width: 0.45; stroke-opacity: 1; stroke: rgb(80, 80, 80);"></path><path class="link" marker-end="" d="M526,853, 797,534.5" style="stroke-width: 0.45; stroke-opacity: 1; stroke: rgb(80, 80, 80);"></path><path class="link" marker-end="" d="M526,853, 797,583.5" style="stroke-width: 0.45; stroke-opacity: 1; stroke: rgb(80, 80, 80);"></path><path class="link" marker-end="" d="M797,93.5, 1068,338.5" style="stroke-width: 0.45; stroke-opacity: 1; stroke: rgb(80, 80, 80);"></path><path class="link" marker-end="" d="M797,142.5, 1068,338.5" style="stroke-width: 0.45; stroke-opacity: 1; stroke: rgb(80, 80, 80);"></path><path class="link" marker-end="" d="M797,191.5, 1068,338.5" style="stroke-width: 0.45; stroke-opacity: 1; stroke: rgb(80, 80, 80);"></path><path class="link" marker-end="" d="M797,240.5, 1068,338.5" style="stroke-width: 0.45; stroke-opacity: 1; stroke: rgb(80, 80, 80);"></path><path class="link" marker-end="" d="M797,289.5, 1068,338.5" style="stroke-width: 0.45; stroke-opacity: 1; stroke: rgb(80, 80, 80);"></path><path class="link" marker-end="" d="M797,338.5, 1068,338.5" style="stroke-width: 0.45; stroke-opacity: 1; stroke: rgb(80, 80, 80);"></path><path class="link" marker-end="" d="M797,387.5, 1068,338.5" style="stroke-width: 0.45; stroke-opacity: 1; stroke: rgb(80, 80, 80);"></path><path class="link" marker-end="" d="M797,436.5, 1068,338.5" style="stroke-width: 0.45; stroke-opacity: 1; stroke: rgb(80, 80, 80);"></path><path class="link" marker-end="" d="M797,485.5, 1068,338.5" style="stroke-width: 0.45; stroke-opacity: 1; stroke: rgb(80, 80, 80);"></path><path class="link" marker-end="" d="M797,534.5, 1068,338.5" style="stroke-width: 0.45; stroke-opacity: 1; stroke: rgb(80, 80, 80);"></path><path class="link" marker-end="" d="M797,583.5, 1068,338.5" style="stroke-width: 0.45; stroke-opacity: 1; stroke: rgb(80, 80, 80);"></path><circle r="14.5" class="node" id="0_0" cx="526" cy="-176" style="fill: rgb(255, 255, 255); stroke: rgb(51, 51, 51);"></circle><circle r="14.5" class="node" id="0_1" cx="526" cy="-127" style="fill: rgb(255, 255, 255); stroke: rgb(51, 51, 51);"></circle><circle r="14.5" class="node" id="0_2" cx="526" cy="-78" style="fill: rgb(255, 255, 255); stroke: rgb(51, 51, 51);"></circle><circle r="14.5" class="node" id="0_3" cx="526" cy="-29" style="fill: rgb(255, 255, 255); stroke: rgb(51, 51, 51);"></circle><circle r="14.5" class="node" id="0_4" cx="526" cy="20" style="fill: rgb(255, 255, 255); stroke: rgb(51, 51, 51);"></circle><circle r="14.5" class="node" id="0_5" cx="526" cy="69" style="fill: rgb(255, 255, 255); stroke: rgb(51, 51, 51);"></circle><circle r="14.5" class="node" id="0_6" cx="526" cy="118" style="fill: rgb(255, 255, 255); stroke: rgb(51, 51, 51);"></circle><circle r="14.5" class="node" id="0_7" cx="526" cy="167" style="fill: rgb(255, 255, 255); stroke: rgb(51, 51, 51);"></circle><circle r="14.5" class="node" id="0_8" cx="526" cy="216" style="fill: rgb(255, 255, 255); stroke: rgb(51, 51, 51);"></circle><circle r="14.5" class="node" id="0_9" cx="526" cy="265" style="fill: rgb(255, 255, 255); stroke: rgb(51, 51, 51);"></circle><circle r="14.5" class="node" id="0_10" cx="526" cy="314" style="fill: rgb(255, 255, 255); stroke: rgb(51, 51, 51);"></circle><circle r="14.5" class="node" id="0_11" cx="526" cy="363" style="fill: rgb(255, 255, 255); stroke: rgb(51, 51, 51);"></circle><circle r="14.5" class="node" id="0_12" cx="526" cy="412" style="fill: rgb(255, 255, 255); stroke: rgb(51, 51, 51);"></circle><circle r="14.5" class="node" id="0_13" cx="526" cy="461" style="fill: rgb(255, 255, 255); stroke: rgb(51, 51, 51);"></circle><circle r="14.5" class="node" id="0_14" cx="526" cy="510" style="fill: rgb(255, 255, 255); stroke: rgb(51, 51, 51);"></circle><circle r="14.5" class="node" id="0_15" cx="526" cy="559" style="fill: rgb(255, 255, 255); stroke: rgb(51, 51, 51);"></circle><circle r="14.5" class="node" id="0_16" cx="526" cy="608" style="fill: rgb(255, 255, 255); stroke: rgb(51, 51, 51);"></circle><circle r="14.5" class="node" id="0_17" cx="526" cy="657" style="fill: rgb(255, 255, 255); stroke: rgb(51, 51, 51);"></circle><circle r="14.5" class="node" id="0_18" cx="526" cy="706" style="fill: rgb(255, 255, 255); stroke: rgb(51, 51, 51);"></circle><circle r="14.5" class="node" id="0_19" cx="526" cy="755" style="fill: rgb(255, 255, 255); stroke: rgb(51, 51, 51);"></circle><circle r="14.5" class="node" id="0_20" cx="526" cy="804" style="fill: rgb(255, 255, 255); stroke: rgb(51, 51, 51);"></circle><circle r="14.5" class="node" id="0_21" cx="526" cy="853" style="fill: rgb(255, 255, 255); stroke: rgb(51, 51, 51);"></circle><circle r="14.5" class="node" id="1_0" cx="797" cy="93.5" style="fill: rgb(255, 255, 255); stroke: rgb(51, 51, 51);"></circle><text class="text" dy=".35em" x="491" y="902" style="font-size: 12px;"></text><text class="text" dy=".35em" x="762" y="902" style="font-size: 12px;"></text><circle r="14.5" class="node" id="1_1" cx="797" cy="142.5" style="fill: rgb(255, 255, 255); stroke: rgb(51, 51, 51);"></circle><circle r="14.5" class="node" id="1_2" cx="797" cy="191.5" style="fill: rgb(255, 255, 255); stroke: rgb(51, 51, 51);"></circle><circle r="14.5" class="node" id="1_3" cx="797" cy="240.5" style="fill: rgb(255, 255, 255); stroke: rgb(51, 51, 51);"></circle><circle r="14.5" class="node" id="1_4" cx="797" cy="289.5" style="fill: rgb(255, 255, 255); stroke: rgb(51, 51, 51);"></circle><circle r="14.5" class="node" id="1_5" cx="797" cy="338.5" style="fill: rgb(255, 255, 255); stroke: rgb(51, 51, 51);"></circle><circle r="14.5" class="node" id="1_6" cx="797" cy="387.5" style="fill: rgb(255, 255, 255); stroke: rgb(51, 51, 51);"></circle><circle r="14.5" class="node" id="1_7" cx="797" cy="436.5" style="fill: rgb(255, 255, 255); stroke: rgb(51, 51, 51);"></circle><circle r="14.5" class="node" id="1_8" cx="797" cy="485.5" style="fill: rgb(255, 255, 255); stroke: rgb(51, 51, 51);"></circle><circle r="14.5" class="node" id="1_9" cx="797" cy="534.5" style="fill: rgb(255, 255, 255); stroke: rgb(51, 51, 51);"></circle><circle r="14.5" class="node" id="1_10" cx="797" cy="583.5" style="fill: rgb(255, 255, 255); stroke: rgb(51, 51, 51);"></circle><circle r="14.5" class="node" id="2_0" cx="1068" cy="338.5" style="fill: rgb(255, 255, 255); stroke: rgb(51, 51, 51);"></circle><text class="text" dy=".35em" x="1033" y="902" style="font-size: 12px;"></text></g><defs><marker id="arrow" viewBox="0 -5 10 10" markerWidth="7" markerHeight="7" orient="auto" refX="52.599999999999994"><path d="M0,-5L10,0L0,5" style="stroke: rgb(80, 80, 80); fill: none;"></path></marker></defs></svg>